# xmcd
#
# Track frame offsets:
# 150
# 22547
# 44876
#
# Disc length: 1036 seconds
#
# Revision: 0
# Processed by: cddbd v1.4PL0 Copyright (c) Steve Scherf et al.
# Submitted via: Audion 3.0.2 (http://www.panic.com/audion/)
#
DISCID=1b040a03
DTITLE=Boom - Boom
DYEAR=1900
DGENRE=
TTITLE0=Invitation
TTITLE1=Surrender
TTITLE2=Watch the Lamb
EXTD=
EXTT0=
EXTT1=
EXTT2=
PLAYORDER=
